<?xml version="1.0" encoding="UTF-8"?><svg id="Capa_2" xmlns="http://www.w3.org/2000/svg" viewBox="0 0 108.18 22.15"><defs><style>.cls-1{fill:#fff;stroke-width:0px;}</style></defs><g id="Capa_1-2"><path className="cls-1" d="m10.83,17.56v-1.08c-1.05.95-2.46,1.49-4.21,1.49-3.59,0-6.62-2.89-6.62-7.19S3.03,3.59,6.62,3.59c1.76,0,3.16.54,4.21,1.49v-1.49h4.32v13.96h-4.32Zm0-6.78c0-2.08-1.57-3.51-3.32-3.51-1.89,0-3.27,1.43-3.27,3.51s1.38,3.51,3.27,3.51c1.75,0,3.32-1.4,3.32-3.51Z"/><path className="cls-1" d="m32.54,10.78c0,4.3-3.03,7.19-6.62,7.19-1.76,0-3.16-.54-4.21-1.49v5.67h-4.32V3.59h4.32v1.49c1.05-.94,2.46-1.49,4.21-1.49,3.59,0,6.62,2.92,6.62,7.18Zm-4.24,0c0-2.08-1.38-3.51-3.27-3.51-1.75,0-3.32,1.43-3.32,3.51s1.57,3.51,3.32,3.51c1.89,0,3.27-1.4,3.27-3.51Z"/><path className="cls-1" d="m49.93,10.78c0,4.3-3.03,7.19-6.62,7.19-1.76,0-3.16-.54-4.21-1.49v5.67h-4.32V3.59h4.32v1.49c1.05-.94,2.46-1.49,4.21-1.49,3.59,0,6.62,2.92,6.62,7.18Zm-4.24,0c0-2.08-1.38-3.51-3.27-3.51-1.75,0-3.32,1.43-3.32,3.51s1.57,3.51,3.32,3.51c1.89,0,3.27-1.4,3.27-3.51Z"/><path className="cls-1" d="m62.24,17.56v-1.08c-1.05.95-2.46,1.49-4.21,1.49-3.59,0-6.62-2.89-6.62-7.19s3.03-7.18,6.62-7.18c1.76,0,3.16.54,4.21,1.49v-1.49h4.32v13.96h-4.32Zm0-6.78c0-2.08-1.57-3.51-3.32-3.51-1.89,0-3.27,1.43-3.27,3.51s1.38,3.51,3.27,3.51c1.75,0,3.32-1.4,3.32-3.51Z"/><path className="cls-1" d="m78.77,3.7l-.19,4.54h-.78c-3.03,0-4.67,1.57-4.67,5.08v4.24h-4.32V3.59h4.32v2.78c.97-1.62,2.46-2.78,4.67-2.78.38,0,.65.03.97.11Z"/><path className="cls-1" d="m90.06,17.56v-1.08c-1.05.95-2.46,1.49-4.21,1.49-3.59,0-6.62-2.89-6.62-7.19s3.03-7.18,6.62-7.18c1.76,0,3.16.54,4.21,1.49v-1.49h4.32v13.96h-4.32Zm0-6.78c0-2.08-1.57-3.51-3.32-3.51-1.89,0-3.27,1.43-3.27,3.51s1.38,3.51,3.27,3.51c1.75,0,3.32-1.4,3.32-3.51Z"/><path className="cls-1" d="m104.48,17.96c-3.38,0-5.4-1.84-5.4-5.4v-5.54h-2.46v-3.43h2.46V0h4.32v3.59h4v3.43h-4v5.1c0,1.4.68,1.97,1.81,1.97.59,0,1.4-.22,1.97-.54l1,3.4c-1.05.57-2.16,1-3.7,1Z"/></g></svg>